# xmcd
#
# Track frame offsets:
#	150
#	11618
#	28003
#	41899
#	55770
#	71446
#	79144
#	100433
#	112999
#
# Disc length: 1737 seconds
#
# Revision: 1
# Processed by: cddbd v1.5.2PL0 Copyright (c) Steve Scherf et al.
# Submitted via: audiograbber 1.83.01
#
DISCID=7006c709
DTITLE=Ampvitamin - Sunnpimp
DYEAR=2010
DGENRE=
TTITLE0=Katherine Hurley
TTITLE1=I Feel Like A Million
TTITLE2=Grace
TTITLE3=Dream On
TTITLE4=Goodbye
TTITLE5=This Psyche Of Mine
TTITLE6=Rubber Roulette
TTITLE7=The Right Stuff
TTITLE8=Bright New Living
EXTD=
EXTT0=
EXTT1=
EXTT2=
EXTT3=
EXTT4=
EXTT5=
EXTT6=
EXTT7=
EXTT8=
PLAYORDER=
